# xmcd
#
# Track frame offsets:
#	150
#	15293
#	29390
#	45518
#	57170
#	68343
#	79505
#	92848
#	103734
#	112921
#	124585
#	138870
#	149813
#	160999
#
# Disc length: 2271 seconds
#
# Revision: 1
# Processed by: cddbd v1.5.2PL0 Copyright (c) Steve Scherf et al.
# Submitted via: audiograbber 1.83.01
#
DISCID=ac08dd0e
DTITLE=Rockin' Louie and The Mamma Jammers - It Will Stand
DYEAR=1980
DGENRE=R&B
TTITLE0=Club Savoy
TTITLE1=Real Gone Lover
TTITLE2=Don't Buy Me No Beer
TTITLE3=Lovin' Machine
TTITLE4=Let's Go Let's Go Let's Go
TTITLE5=Ready To Go
TTITLE6=Boogie Woogie Country Girl
TTITLE7=Big 10 Inch Record
TTITLE8=Reet Petite And Gone
TTITLE9=It Will Stand
TTITLE10=Joops Jump
TTITLE11=I Know You're Jivin' Me
TTITLE12=Rock And Roll Man
TTITLE13=Troubles Troubles
EXTD=
EXTT0=
EXTT1=
EXTT2=
EXTT3=
EXTT4=
EXTT5=
EXTT6=
EXTT7=
EXTT8=
EXTT9=
EXTT10=
EXTT11=
EXTT12=
EXTT13=
PLAYORDER=
